<svg xmlns="http://www.w3.org/2000/svg" width="520" height="400" style ="fill:none;"><style>.svg_txt{font-size:20px;}.glyph{stroke:#000000;stroke-width:1;stroke:1;}</style><rect x="0" y="0" width="40" height="40" style="fill:rgb(255, 253, 227);stroke:rgb(20,20,20);stroke-width:1;"/><path class='glyph' d='M4 4L16 16' transform='translate(0 0) scale(2.0)'/><rect x="40" y="0" width="400" height="40" style="fill:rgb(255,255,255);stroke:black;stroke-width:1;"/><text x = "60.0" y = "20.0" fill="black">Yellow Ultra Pale</text><rect x="440" y="0" width="80" height="40" style="fill:rgb(255,255,255);stroke:black;stroke-width:1;"/><text x = "460.0" y = "20.0" fill="black">3823</text><rect x="0" y="40" width="40" height="40" style="fill:rgb(255, 238, 227);stroke:rgb(20,20,20);stroke-width:1;"/><path class='glyph' d='M4 16L16 4M4 10L 16 10' transform='translate(0 40) scale(2.0)'/><rect x="40" y="40" width="400" height="40" style="fill:rgb(255,255,255);stroke:black;stroke-width:1;"/><text x = "60.0" y = "60.0" fill="black">Tawny Vy Light</text><rect x="440" y="40" width="80" height="40" style="fill:rgb(255,255,255);stroke:black;stroke-width:1;"/><text x = "460.0" y = "60.0" fill="black">3770</text><rect x="0" y="80" width="40" height="40" style="fill:rgb(248, 228, 200);stroke:rgb(20,20,20);stroke-width:1;"/><path class='glyph' d='M7 7L7 13 13 13 13 7Z' fill='black' transform='translate(0 80) scale(2.0)'/><rect x="40" y="80" width="400" height="40" style="fill:rgb(255,255,255);stroke:black;stroke-width:1;"/><text x = "60.0" y = "100.0" fill="black">Tan Ult Vy Lt</text><rect x="440" y="80" width="80" height="40" style="fill:rgb(255,255,255);stroke:black;stroke-width:1;"/><text x = "460.0" y = "100.0" fill="black">739</text><rect x="0" y="120" width="40" height="40" style="fill:rgb(240, 234, 218);stroke:rgb(20,20,20);stroke-width:1;"/><path class='glyph' d='M4 4L10 16L16 4 Z' transform='translate(0 120) scale(2.0)'/><rect x="40" y="120" width="400" height="40" style="fill:rgb(255,255,255);stroke:black;stroke-width:1;"/><text x = "60.0" y = "140.0" fill="black">Ecru</text><rect x="440" y="120" width="80" height="40" style="fill:rgb(255,255,255);stroke:black;stroke-width:1;"/><text x = "460.0" y = "140.0" fill="black">Ecru</text><rect x="0" y="160" width="40" height="40" style="fill:rgb(242, 227, 206);stroke:rgb(20,20,20);stroke-width:1;"/><path class='glyph' d='M4 4L16 16M4 16 L16 4' transform='translate(0 160) scale(2.0)'/><rect x="40" y="160" width="400" height="40" style="fill:rgb(255,255,255);stroke:black;stroke-width:1;"/><text x = "60.0" y = "180.0" fill="black">Beige Brown Ult Vy Lt</text><rect x="440" y="160" width="80" height="40" style="fill:rgb(255,255,255);stroke:black;stroke-width:1;"/><text x = "460.0" y = "180.0" fill="black">543</text><rect x="0" y="200" width="40" height="40" style="fill:rgb(221, 227, 227);stroke:rgb(20,20,20);stroke-width:1;"/><path class='glyph' d='M4 4L4 16 16 16 16 4Z' transform='translate(0 200) scale(2.0)'/><rect x="40" y="200" width="400" height="40" style="fill:rgb(255,255,255);stroke:black;stroke-width:1;"/><text x = "60.0" y = "220.0" fill="black">Gray Green Vy Lt</text><rect x="440" y="200" width="80" height="40" style="fill:rgb(255,255,255);stroke:black;stroke-width:1;"/><text x = "460.0" y = "220.0" fill="black">928</text><rect x="0" y="240" width="40" height="40" style="fill:rgb(231, 214, 193);stroke:rgb(20,20,20);stroke-width:1;"/><path class='glyph' d='M4 4L10 16L16 4 Z' fill='black' transform='translate(0 240) scale(2.0)'/><rect x="40" y="240" width="400" height="40" style="fill:rgb(255,255,255);stroke:black;stroke-width:1;"/><text x = "60.0" y = "260.0" fill="black">Yellow Beige Lt</text><rect x="440" y="240" width="80" height="40" style="fill:rgb(255,255,255);stroke:black;stroke-width:1;"/><text x = "460.0" y = "260.0" fill="black">3047</text><rect x="0" y="280" width="40" height="40" style="fill:rgb(196, 205, 172);stroke:rgb(20,20,20);stroke-width:1;"/><path class='glyph' d='M10 4L6 10 10 16 14 10Z' fill='black' transform='translate(0 280) scale(2.0)'/><rect x="40" y="280" width="400" height="40" style="fill:rgb(255,255,255);stroke:black;stroke-width:1;"/><text x = "60.0" y = "300.0" fill="black">Fern Green Vy Lt</text><rect x="440" y="280" width="80" height="40" style="fill:rgb(255,255,255);stroke:black;stroke-width:1;"/><text x = "460.0" y = "300.0" fill="black">524</text><rect x="0" y="320" width="40" height="40" style="fill:rgb(96, 103, 140);stroke:rgb(20,20,20);stroke-width:1;"/><path class='glyph' d='M8 8L8 12 12 12 12 8Z' transform='translate(0 320) scale(2.0)'/><rect x="40" y="320" width="400" height="40" style="fill:rgb(255,255,255);stroke:black;stroke-width:1;"/><text x = "60.0" y = "340.0" fill="black">Cornflower Blue</text><rect x="440" y="320" width="80" height="40" style="fill:rgb(255,255,255);stroke:black;stroke-width:1;"/><text x = "460.0" y = "340.0" fill="black">3807</text><rect x="0" y="360" width="40" height="40" style="fill:rgb(56, 76, 94);stroke:rgb(20,20,20);stroke-width:1;"/><path class='glyph' d='M4 4L16 16M4 16 L16 4M10 4L10 16M4 10L16 10' transform='translate(0 360) scale(2.0)'/><rect x="40" y="360" width="400" height="40" style="fill:rgb(255,255,255);stroke:black;stroke-width:1;"/><text x = "60.0" y = "380.0" fill="black">Antique Blue Very Dk</text><rect x="440" y="360" width="80" height="40" style="fill:rgb(255,255,255);stroke:black;stroke-width:1;"/><text x = "460.0" y = "380.0" fill="black">3750</text></svg>