<svg xmlns="http://www.w3.org/2000/svg" width="520" height="200" style ="fill:none;"><style>.svg_txt{font-size:20px;}.glyph{stroke:#000000;stroke-width:1;stroke:1;}</style><rect x="0" y="0" width="40" height="40" style="fill:rgb(255, 255, 255);stroke:rgb(20,20,20);stroke-width:1;"/><path class='glyph' d='M4 4L16 16' transform='translate(0 0) scale(2.0)'/><rect x="40" y="0" width="400" height="40" style="fill:rgb(255,255,255);stroke:black;stroke-width:1;"/><text x = "60.0" y = "20.0" fill="black">Snow White</text><rect x="440" y="0" width="80" height="40" style="fill:rgb(255,255,255);stroke:black;stroke-width:1;"/><text x = "460.0" y = "20.0" fill="black">B5200</text><rect x="0" y="40" width="40" height="40" style="fill:rgb(197, 232, 237);stroke:rgb(20,20,20);stroke-width:1;"/><path class='glyph' d='M4 16L16 4M4 10L 16 10' transform='translate(0 40) scale(2.0)'/><rect x="40" y="40" width="400" height="40" style="fill:rgb(255,255,255);stroke:black;stroke-width:1;"/><text x = "60.0" y = "60.0" fill="black">Sky Blue Vy Lt</text><rect x="440" y="40" width="80" height="40" style="fill:rgb(255,255,255);stroke:black;stroke-width:1;"/><text x = "460.0" y = "60.0" fill="black">828</text><rect x="0" y="80" width="40" height="40" style="fill:rgb(239, 244, 164);stroke:rgb(20,20,20);stroke-width:1;"/><path class='glyph' d='M7 7L7 13 13 13 13 7Z' fill='black' transform='translate(0 80) scale(2.0)'/><rect x="40" y="80" width="400" height="40" style="fill:rgb(255,255,255);stroke:black;stroke-width:1;"/><text x = "60.0" y = "100.0" fill="black">Moss Green Vy Lt</text><rect x="440" y="80" width="80" height="40" style="fill:rgb(255,255,255);stroke:black;stroke-width:1;"/><text x = "460.0" y = "100.0" fill="black">165</text><rect x="0" y="120" width="40" height="40" style="fill:rgb(226, 115, 35);stroke:rgb(20,20,20);stroke-width:1;"/><path class='glyph' d='M4 4L10 16L16 4 Z' transform='translate(0 120) scale(2.0)'/><rect x="40" y="120" width="400" height="40" style="fill:rgb(255,255,255);stroke:black;stroke-width:1;"/><text x = "60.0" y = "140.0" fill="black">Copper Light</text><rect x="440" y="120" width="80" height="40" style="fill:rgb(255,255,255);stroke:black;stroke-width:1;"/><text x = "460.0" y = "140.0" fill="black">922</text><rect x="0" y="160" width="40" height="40" style="fill:rgb(30, 17, 8);stroke:rgb(20,20,20);stroke-width:1;"/><path class='glyph' d='M4 4L16 16M4 16 L16 4' transform='translate(0 160) scale(2.0)'/><rect x="40" y="160" width="400" height="40" style="fill:rgb(255,255,255);stroke:black;stroke-width:1;"/><text x = "60.0" y = "180.0" fill="black">Black Brown</text><rect x="440" y="160" width="80" height="40" style="fill:rgb(255,255,255);stroke:black;stroke-width:1;"/><text x = "460.0" y = "180.0" fill="black">3371</text></svg>